<svg width="1042.8" height="97.2" viewBox="0 0 1042.8 97.2" xmlns="http://www.w3.org/2000/svg"><g id="svgGroup" stroke-linecap="round" fill-rule="evenodd" font-size="9pt" stroke="#000" stroke-width="0.25mm" fill="#000" style="stroke:#000;stroke-width:0.25mm;fill:#000"><path d="M 353.8 74 L 344.8 74 L 344.8 22 L 353.5 22 L 353.5 30.7 Q 356.3 26.5 360.6 23.65 A 17.205 17.205 0 0 1 369.802 20.809 A 20.858 20.858 0 0 1 370.4 20.8 A 20.994 20.994 0 0 1 374.817 21.24 Q 377.803 21.882 380.085 23.463 A 13.128 13.128 0 0 1 380.55 23.8 A 15.751 15.751 0 0 1 385.998 31.489 A 19.154 19.154 0 0 1 386.1 31.8 Q 389.2 27.2 393.45 24 A 15.669 15.669 0 0 1 400.241 21.116 A 21.446 21.446 0 0 1 404 20.8 A 21.437 21.437 0 0 1 408.888 21.322 Q 412.474 22.162 414.963 24.351 A 12.994 12.994 0 0 1 416.65 26.15 A 18.992 18.992 0 0 1 420.061 33.422 Q 420.8 36.472 420.8 40.1 L 420.8 74 L 411.8 74 L 411.8 40.8 A 19.042 19.042 0 0 0 411.463 37.111 Q 411.027 34.905 410.028 33.161 A 10.982 10.982 0 0 0 409.3 32.05 A 7.974 7.974 0 0 0 403.487 28.754 A 10.678 10.678 0 0 0 402.4 28.7 A 11.926 11.926 0 0 0 395.641 30.827 A 15.996 15.996 0 0 0 394.05 32.05 Q 390.2 35.4 387.3 39.9 L 387.3 74 L 378.3 74 L 378.3 40.8 A 19.042 19.042 0 0 0 377.963 37.111 Q 377.527 34.905 376.528 33.161 A 10.982 10.982 0 0 0 375.8 32.05 A 7.974 7.974 0 0 0 369.987 28.754 A 10.678 10.678 0 0 0 368.9 28.7 A 12.02 12.02 0 0 0 362.581 30.528 A 16.244 16.244 0 0 0 360.6 31.95 Q 356.7 35.2 353.8 39.6 L 353.8 74 Z M 917 74 L 908 74 L 908 22 L 916.7 22 L 916.7 30.7 Q 919.5 26.5 923.8 23.65 A 17.205 17.205 0 0 1 933.002 20.809 A 20.858 20.858 0 0 1 933.6 20.8 A 20.994 20.994 0 0 1 938.017 21.24 Q 941.003 21.882 943.285 23.463 A 13.128 13.128 0 0 1 943.75 23.8 A 15.751 15.751 0 0 1 949.198 31.489 A 19.154 19.154 0 0 1 949.3 31.8 Q 952.4 27.2 956.65 24 A 15.669 15.669 0 0 1 963.441 21.116 A 21.446 21.446 0 0 1 967.2 20.8 A 21.437 21.437 0 0 1 972.088 21.322 Q 975.674 22.162 978.163 24.351 A 12.994 12.994 0 0 1 979.85 26.15 A 18.992 18.992 0 0 1 983.261 33.422 Q 984 36.472 984 40.1 L 984 74 L 975 74 L 975 40.8 A 19.042 19.042 0 0 0 974.663 37.111 Q 974.227 34.905 973.228 33.161 A 10.982 10.982 0 0 0 972.5 32.05 A 7.974 7.974 0 0 0 966.687 28.754 A 10.678 10.678 0 0 0 965.6 28.7 A 11.926 11.926 0 0 0 958.841 30.827 A 15.996 15.996 0 0 0 957.25 32.05 Q 953.4 35.4 950.5 39.9 L 950.5 74 L 941.5 74 L 941.5 40.8 A 19.042 19.042 0 0 0 941.163 37.111 Q 940.727 34.905 939.728 33.161 A 10.982 10.982 0 0 0 939 32.05 A 7.974 7.974 0 0 0 933.187 28.754 A 10.678 10.678 0 0 0 932.1 28.7 A 12.02 12.02 0 0 0 925.781 30.528 A 16.244 16.244 0 0 0 923.8 31.95 Q 919.9 35.2 917 39.6 L 917 74 Z M 42 74 L 0 74 L 0 4 L 42 4 L 42 12.2 L 9.5 12.2 L 9.5 33.5 L 37.5 33.5 L 37.5 41.5 L 9.5 41.5 L 9.5 65.8 L 42 65.8 L 42 74 Z M 992 95.2 L 994 87.7 A 9.908 9.908 0 0 0 995.165 88.274 Q 995.988 88.619 997 88.9 A 13.514 13.514 0 0 0 999.279 89.317 A 17.358 17.358 0 0 0 1001 89.4 Q 1005.2 89.4 1008.5 86.7 A 12.003 12.003 0 0 0 1010.433 84.639 Q 1012.181 82.328 1013.841 78.475 A 58.58 58.58 0 0 0 1014.8 76.1 L 1017.1 70.1 L 1012.3 70.1 L 992 24.4 L 1000 20.8 L 1019.4 64.1 L 1034.5 21.2 L 1042.8 24.4 L 1023.7 76.6 A 71.728 71.728 0 0 1 1021.647 81.686 Q 1020.545 84.126 1019.378 86.114 A 30.86 30.86 0 0 1 1017.4 89.1 A 24.268 24.268 0 0 1 1014.522 92.311 Q 1012.608 94.079 1010.505 95.118 A 14.737 14.737 0 0 1 1009.9 95.4 Q 1005.8 97.2 1000.8 97.2 Q 997.8 97.2 995.55 96.6 Q 993.3 96 992 95.2 Z M 115.1 92.8 L 118.4 85 A 20.562 20.562 0 0 0 122.217 87.373 A 24.737 24.737 0 0 0 124 88.15 Q 126.759 89.228 130.559 89.376 A 31.788 31.788 0 0 0 131.8 89.4 A 21.701 21.701 0 0 0 136.321 88.957 Q 139.222 88.339 141.422 86.859 A 12.576 12.576 0 0 0 142.95 85.65 A 11.352 11.352 0 0 0 145.857 81.157 Q 147 78.056 147 73.7 L 147 67.3 Q 145 69.7 141.25 71.85 Q 137.5 74 132.3 74 Q 126.4 74 121.1 70.95 A 22.236 22.236 0 0 1 113.808 64.112 A 27.437 27.437 0 0 1 112.5 62 A 25.181 25.181 0 0 1 109.787 54.376 A 35.033 35.033 0 0 1 109.2 47.8 A 32.06 32.06 0 0 1 110.117 39.992 A 26.682 26.682 0 0 1 112.45 33.9 A 25.706 25.706 0 0 1 118.514 26.278 A 24.448 24.448 0 0 1 121.2 24.3 Q 126.7 20.8 133.3 20.8 A 22.366 22.366 0 0 1 138.12 21.301 A 18.715 18.715 0 0 1 141.3 22.3 A 25.705 25.705 0 0 1 145.128 24.268 A 20.998 20.998 0 0 1 147.5 26 L 147.5 22 L 155.7 22 L 155.7 72.8 Q 155.7 81.4 152.7 86.8 Q 149.7 92.2 144.35 94.7 A 25.811 25.811 0 0 1 137.746 96.721 A 35.243 35.243 0 0 1 131.8 97.2 Q 127.2 97.2 122.85 96.1 A 27.232 27.232 0 0 1 117.55 94.183 A 23.518 23.518 0 0 1 115.1 92.8 Z M 234.3 92.8 L 237.6 85 A 20.562 20.562 0 0 0 241.417 87.373 A 24.737 24.737 0 0 0 243.2 88.15 Q 245.959 89.228 249.759 89.376 A 31.788 31.788 0 0 0 251 89.4 A 21.701 21.701 0 0 0 255.521 88.957 Q 258.422 88.339 260.622 86.859 A 12.576 12.576 0 0 0 262.15 85.65 A 11.352 11.352 0 0 0 265.057 81.157 Q 266.2 78.056 266.2 73.7 L 266.2 67.3 Q 264.2 69.7 260.45 71.85 Q 256.7 74 251.5 74 Q 245.6 74 240.3 70.95 A 22.236 22.236 0 0 1 233.008 64.112 A 27.437 27.437 0 0 1 231.7 62 A 25.181 25.181 0 0 1 228.987 54.376 A 35.033 35.033 0 0 1 228.4 47.8 A 32.06 32.06 0 0 1 229.317 39.992 A 26.682 26.682 0 0 1 231.65 33.9 A 25.706 25.706 0 0 1 237.714 26.278 A 24.448 24.448 0 0 1 240.4 24.3 Q 245.9 20.8 252.5 20.8 A 22.366 22.366 0 0 1 257.32 21.301 A 18.715 18.715 0 0 1 260.5 22.3 A 25.705 25.705 0 0 1 264.328 24.268 A 20.998 20.998 0 0 1 266.7 26 L 266.7 22 L 274.9 22 L 274.9 72.8 Q 274.9 81.4 271.9 86.8 Q 268.9 92.2 263.55 94.7 A 25.811 25.811 0 0 1 256.946 96.721 A 35.243 35.243 0 0 1 251 97.2 Q 246.4 97.2 242.05 96.1 A 27.232 27.232 0 0 1 236.75 94.183 A 23.518 23.518 0 0 1 234.3 92.8 Z M 62.5 74 L 53.5 74 L 53.5 22 L 62.2 22 L 62.2 30.7 Q 65 26.5 69.35 23.65 A 17.316 17.316 0 0 1 76.456 21.025 A 22.629 22.629 0 0 1 79.7 20.8 A 23.225 23.225 0 0 1 84.765 21.318 Q 89.859 22.456 92.85 26.1 Q 96.975 31.126 97.188 39.209 A 33.764 33.764 0 0 1 97.2 40.1 L 97.2 74 L 88.2 74 L 88.2 41.1 A 19.265 19.265 0 0 0 87.858 37.359 Q 87.419 35.145 86.419 33.397 A 10.966 10.966 0 0 0 85.55 32.1 A 8.579 8.579 0 0 0 79.273 28.747 A 12.061 12.061 0 0 0 78.2 28.7 A 13.122 13.122 0 0 0 71.351 30.664 A 17.353 17.353 0 0 0 69.5 31.95 Q 65.4 35.2 62.5 39.6 L 62.5 74 Z M 499.7 74 L 490.7 74 L 490.7 22 L 499.4 22 L 499.4 30.7 Q 502.2 26.5 506.55 23.65 A 17.316 17.316 0 0 1 513.656 21.025 A 22.629 22.629 0 0 1 516.9 20.8 A 23.225 23.225 0 0 1 521.965 21.318 Q 527.059 22.456 530.05 26.1 Q 534.175 31.126 534.388 39.209 A 33.764 33.764 0 0 1 534.4 40.1 L 534.4 74 L 525.4 74 L 525.4 41.1 A 19.265 19.265 0 0 0 525.058 37.359 Q 524.619 35.145 523.619 33.397 A 10.966 10.966 0 0 0 522.75 32.1 A 8.579 8.579 0 0 0 516.473 28.747 A 12.061 12.061 0 0 0 515.4 28.7 A 13.122 13.122 0 0 0 508.551 30.664 A 17.353 17.353 0 0 0 506.7 31.95 Q 502.6 35.2 499.7 39.6 L 499.7 74 Z M 677.4 71.5 L 668.7 75 L 660.9 55 L 628.5 55 L 620.7 74.8 L 612.6 71.5 L 640 4 L 650.4 4 L 677.4 71.5 Z M 827.7 27.2 L 827.7 0 L 836.7 0 L 836.7 61.4 A 12.15 12.15 0 0 0 836.802 63.036 Q 837.134 65.47 838.55 66.35 Q 840.4 67.5 842.6 67.5 L 840.7 74.5 Q 831.2 74.5 829.1 66.9 Q 826.9 70 822.95 72.6 Q 819 75.2 813 75.2 Q 806.6 75.2 801.3 71.9 A 22.692 22.692 0 0 1 793.762 64.109 A 27.622 27.622 0 0 1 792.9 62.55 A 27.533 27.533 0 0 1 790.312 54.608 A 37.221 37.221 0 0 1 789.8 48.3 A 33.94 33.94 0 0 1 790.689 40.386 A 27.963 27.963 0 0 1 792.95 34.2 A 27.291 27.291 0 0 1 797.569 27.609 A 24.186 24.186 0 0 1 801.35 24.4 Q 806.6 20.8 812.9 20.8 A 21.642 21.642 0 0 1 817.172 21.202 A 15.942 15.942 0 0 1 821.85 22.9 A 34.343 34.343 0 0 1 824.43 24.489 Q 825.654 25.324 826.625 26.174 A 16.59 16.59 0 0 1 827.7 27.2 Z M 332.5 51.7 L 296.1 51.7 A 24.088 24.088 0 0 0 297.239 56.725 Q 298.575 60.538 301.2 63.1 Q 305.4 67.2 312.3 67.2 Q 316.8 67.2 320.4 66.25 Q 324 65.3 327.3 63.8 L 329.4 71.5 A 40.77 40.77 0 0 1 325.065 73.126 A 51.863 51.863 0 0 1 321.3 74.15 A 38.914 38.914 0 0 1 316.208 74.969 A 52.025 52.025 0 0 1 311.2 75.2 A 28.318 28.318 0 0 1 303.454 74.195 A 21.108 21.108 0 0 1 293.45 68.05 A 23.521 23.521 0 0 1 288.245 58.51 Q 286.9 53.845 286.9 48 A 35.359 35.359 0 0 1 287.733 40.178 A 28.84 28.84 0 0 1 289.85 34.05 A 24.642 24.642 0 0 1 294.866 26.968 A 22.887 22.887 0 0 1 298.1 24.35 A 21.048 21.048 0 0 1 308.359 20.878 A 26.205 26.205 0 0 1 310.4 20.8 Q 317.9 20.8 322.85 24.05 Q 327.8 27.3 330.3 32.8 A 28.185 28.185 0 0 1 332.726 42.664 A 33.434 33.434 0 0 1 332.8 44.9 A 75.204 75.204 0 0 1 332.509 51.597 A 69.426 69.426 0 0 1 332.5 51.7 Z M 478.4 51.7 L 442 51.7 A 24.088 24.088 0 0 0 443.139 56.725 Q 444.475 60.538 447.1 63.1 Q 451.3 67.2 458.2 67.2 Q 462.7 67.2 466.3 66.25 Q 469.9 65.3 473.2 63.8 L 475.3 71.5 A 40.77 40.77 0 0 1 470.965 73.126 A 51.863 51.863 0 0 1 467.2 74.15 A 38.914 38.914 0 0 1 462.108 74.969 A 52.025 52.025 0 0 1 457.1 75.2 A 28.318 28.318 0 0 1 449.354 74.195 A 21.108 21.108 0 0 1 439.35 68.05 A 23.521 23.521 0 0 1 434.145 58.51 Q 432.8 53.845 432.8 48 A 35.359 35.359 0 0 1 433.633 40.178 A 28.84 28.84 0 0 1 435.75 34.05 A 24.642 24.642 0 0 1 440.766 26.968 A 22.887 22.887 0 0 1 444 24.35 A 21.048 21.048 0 0 1 454.259 20.878 A 26.205 26.205 0 0 1 456.3 20.8 Q 463.8 20.8 468.75 24.05 Q 473.7 27.3 476.2 32.8 A 28.185 28.185 0 0 1 478.626 42.664 A 33.434 33.434 0 0 1 478.7 44.9 A 75.204 75.204 0 0 1 478.409 51.597 A 69.426 69.426 0 0 1 478.4 51.7 Z M 895.7 51.7 L 859.3 51.7 A 24.088 24.088 0 0 0 860.439 56.725 Q 861.775 60.538 864.4 63.1 Q 868.6 67.2 875.5 67.2 Q 880 67.2 883.6 66.25 Q 887.2 65.3 890.5 63.8 L 892.6 71.5 A 40.77 40.77 0 0 1 888.265 73.126 A 51.863 51.863 0 0 1 884.5 74.15 A 38.914 38.914 0 0 1 879.408 74.969 A 52.025 52.025 0 0 1 874.4 75.2 A 28.318 28.318 0 0 1 866.654 74.195 A 21.108 21.108 0 0 1 856.65 68.05 A 23.521 23.521 0 0 1 851.445 58.51 Q 850.1 53.845 850.1 48 A 35.359 35.359 0 0 1 850.933 40.178 A 28.84 28.84 0 0 1 853.05 34.05 A 24.642 24.642 0 0 1 858.066 26.968 A 22.887 22.887 0 0 1 861.3 24.35 A 21.048 21.048 0 0 1 871.559 20.878 A 26.205 26.205 0 0 1 873.6 20.8 Q 881.1 20.8 886.05 24.05 Q 891 27.3 893.5 32.8 A 28.185 28.185 0 0 1 895.926 42.664 A 33.434 33.434 0 0 1 896 44.9 A 75.204 75.204 0 0 1 895.709 51.597 A 69.426 69.426 0 0 1 895.7 51.7 Z M 551.9 56.1 L 551.9 31.7 L 542.9 31.7 L 542.9 23.9 L 552.1 23.9 L 554 7.5 L 560.9 7.5 L 560.9 23.9 L 575.3 23.9 L 575.3 31.7 L 560.9 31.7 L 560.9 56.8 A 21.559 21.559 0 0 0 561.068 59.596 Q 561.541 63.202 563.35 64.9 Q 565.8 67.2 569.2 67.2 Q 571.7 67.2 573.95 66.4 Q 576.2 65.6 578.1 64.5 L 580.6 71.7 A 18.546 18.546 0 0 1 578.982 72.556 Q 578.18 72.935 577.234 73.308 A 43.365 43.365 0 0 1 575.2 74.05 Q 571.8 75.2 568.1 75.2 Q 560.6 75.2 556.25 70.25 A 16.116 16.116 0 0 1 553.022 64.348 Q 552.259 61.917 552.015 58.98 A 34.777 34.777 0 0 1 551.9 56.1 Z M 722.3 23.9 L 719.6 31.5 A 30.422 30.422 0 0 0 716.696 30.224 A 23.42 23.42 0 0 0 714.25 29.45 A 20.543 20.543 0 0 0 711.207 28.924 A 26.355 26.355 0 0 0 708.6 28.8 A 15.889 15.889 0 0 0 701.347 30.443 A 16.132 16.132 0 0 0 696.85 33.85 Q 692.1 38.9 692.1 47.8 A 25.192 25.192 0 0 0 692.805 53.86 A 21.45 21.45 0 0 0 694.1 57.6 A 18.564 18.564 0 0 0 697.01 62.177 A 16.275 16.275 0 0 0 699.65 64.6 Q 703.2 67.2 708 67.2 Q 711.165 67.2 713.568 66.61 A 15.08 15.08 0 0 0 714.5 66.35 Q 717.189 65.503 720.276 63.912 A 49.095 49.095 0 0 0 720.3 63.9 L 723.1 71.5 Q 720 73.2 716.15 74.2 Q 712.3 75.2 707.4 75.2 A 26.803 26.803 0 0 1 700.361 74.31 A 22.074 22.074 0 0 1 694.45 71.75 Q 688.9 68.3 685.9 62.15 Q 682.9 56 682.9 48 Q 682.9 40.5 685.95 34.3 Q 689 28.1 694.7 24.45 A 23.067 23.067 0 0 1 704.368 21.029 A 29.608 29.608 0 0 1 708.1 20.8 Q 712.5 20.8 715.85 21.6 Q 719.2 22.4 722.3 23.9 Z M 206.8 26.2 L 206.8 22 L 215 22 L 215 61.4 A 12.15 12.15 0 0 0 215.102 63.036 Q 215.434 65.47 216.85 66.35 Q 218.7 67.5 220.9 67.5 L 219 74.5 A 17.722 17.722 0 0 1 214.735 74.028 Q 209.098 72.628 207.503 67.08 A 13.59 13.59 0 0 1 207.4 66.7 A 21.307 21.307 0 0 1 204.29 70.126 A 28.498 28.498 0 0 1 201.15 72.55 Q 197.2 75.2 191.1 75.2 Q 184.6 75.2 179.3 71.9 A 22.947 22.947 0 0 1 171.887 64.373 A 27.923 27.923 0 0 1 170.85 62.55 A 27.228 27.228 0 0 1 168.22 54.608 A 36.644 36.644 0 0 1 167.7 48.3 A 33.142 33.142 0 0 1 168.697 40.031 A 27.968 27.968 0 0 1 170.85 34.3 Q 174 28.1 179.55 24.45 A 22.297 22.297 0 0 1 190.745 20.844 A 27.388 27.388 0 0 1 192.3 20.8 A 22.584 22.584 0 0 1 197.094 21.29 A 18.703 18.703 0 0 1 200.45 22.35 A 26.002 26.002 0 0 1 204.737 24.644 A 22.103 22.103 0 0 1 206.8 26.2 Z M 768.2 26.2 L 768.2 22 L 776.4 22 L 776.4 61.4 A 12.15 12.15 0 0 0 776.502 63.036 Q 776.834 65.47 778.25 66.35 Q 780.1 67.5 782.3 67.5 L 780.4 74.5 A 17.722 17.722 0 0 1 776.135 74.028 Q 770.498 72.628 768.903 67.08 A 13.59 13.59 0 0 1 768.8 66.7 A 21.307 21.307 0 0 1 765.69 70.126 A 28.498 28.498 0 0 1 762.55 72.55 Q 758.6 75.2 752.5 75.2 Q 746 75.2 740.7 71.9 A 22.947 22.947 0 0 1 733.287 64.373 A 27.923 27.923 0 0 1 732.25 62.55 A 27.228 27.228 0 0 1 729.62 54.608 A 36.644 36.644 0 0 1 729.1 48.3 A 33.142 33.142 0 0 1 730.097 40.031 A 27.968 27.968 0 0 1 732.25 34.3 Q 735.4 28.1 740.95 24.45 A 22.297 22.297 0 0 1 752.145 20.844 A 27.388 27.388 0 0 1 753.7 20.8 A 22.584 22.584 0 0 1 758.494 21.29 A 18.703 18.703 0 0 1 761.85 22.35 A 26.002 26.002 0 0 1 766.137 24.644 A 22.103 22.103 0 0 1 768.2 26.2 Z M 206 60.7 L 206 32.8 Q 203.3 30.9 200.05 29.75 Q 196.8 28.6 193.2 28.6 A 15.924 15.924 0 0 0 188.229 29.354 A 14.024 14.024 0 0 0 184.75 31.05 A 16.301 16.301 0 0 0 179.731 36.474 A 19.962 19.962 0 0 0 179 37.85 A 20.663 20.663 0 0 0 177.247 43.527 A 27.678 27.678 0 0 0 176.9 48 Q 176.9 53.6 179 57.95 A 17.602 17.602 0 0 0 182.106 62.496 A 15.697 15.697 0 0 0 184.8 64.75 Q 188.5 67.2 193.1 67.2 Q 196.9 67.2 200.3 65.35 Q 203.7 63.5 206 60.7 Z M 767.4 60.7 L 767.4 32.8 Q 764.7 30.9 761.45 29.75 Q 758.2 28.6 754.6 28.6 A 15.924 15.924 0 0 0 749.629 29.354 A 14.024 14.024 0 0 0 746.15 31.05 A 16.301 16.301 0 0 0 741.131 36.474 A 19.962 19.962 0 0 0 740.4 37.85 A 20.663 20.663 0 0 0 738.647 43.527 A 27.678 27.678 0 0 0 738.3 48 Q 738.3 53.6 740.4 57.95 A 17.602 17.602 0 0 0 743.506 62.496 A 15.697 15.697 0 0 0 746.2 64.75 Q 749.9 67.2 754.5 67.2 Q 758.3 67.2 761.7 65.35 Q 765.1 63.5 767.4 60.7 Z M 827.7 60.9 L 827.7 35.1 A 15.847 15.847 0 0 0 825.589 32.927 Q 824.468 31.964 823.069 31.066 A 28.139 28.139 0 0 0 822.4 30.65 Q 819 28.6 814.9 28.6 A 14.946 14.946 0 0 0 809.944 29.4 A 13.385 13.385 0 0 0 806.5 31.2 A 16.69 16.69 0 0 0 801.33 37.35 A 19.924 19.924 0 0 0 800.95 38.15 A 22.19 22.19 0 0 0 799.21 44.514 A 28.113 28.113 0 0 0 799 48 A 24.757 24.757 0 0 0 799.593 53.519 A 20.327 20.327 0 0 0 801.1 57.85 A 18.205 18.205 0 0 0 804.14 62.363 A 16.122 16.122 0 0 0 806.85 64.7 Q 810.5 67.2 815 67.2 Q 818.7 67.2 822.05 65.45 Q 825.4 63.7 827.7 60.9 Z M 146.7 60 L 146.7 32.8 Q 144.534 31.225 141.497 29.941 A 36.018 36.018 0 0 0 141.4 29.9 A 16.249 16.249 0 0 0 137.596 28.849 A 22.135 22.135 0 0 0 134.2 28.6 Q 130.1 28.6 126.5 30.8 Q 122.9 33 120.65 37.15 Q 118.4 41.3 118.4 47.3 A 24.32 24.32 0 0 0 118.878 52.236 A 18.311 18.311 0 0 0 120.65 57.2 A 18.576 18.576 0 0 0 123.561 61.275 A 15.802 15.802 0 0 0 126.5 63.7 Q 130.1 66 134.3 66 A 15.276 15.276 0 0 0 138.878 65.332 A 13.606 13.606 0 0 0 141.5 64.2 A 20.855 20.855 0 0 0 144.481 62.184 A 16.309 16.309 0 0 0 146.7 60 Z M 265.9 60 L 265.9 32.8 Q 263.734 31.225 260.697 29.941 A 36.018 36.018 0 0 0 260.6 29.9 A 16.249 16.249 0 0 0 256.796 28.849 A 22.135 22.135 0 0 0 253.4 28.6 Q 249.3 28.6 245.7 30.8 Q 242.1 33 239.85 37.15 Q 237.6 41.3 237.6 47.3 A 24.32 24.32 0 0 0 238.078 52.236 A 18.311 18.311 0 0 0 239.85 57.2 A 18.576 18.576 0 0 0 242.761 61.275 A 15.802 15.802 0 0 0 245.7 63.7 Q 249.3 66 253.5 66 A 15.276 15.276 0 0 0 258.078 65.332 A 13.606 13.606 0 0 0 260.7 64.2 A 20.855 20.855 0 0 0 263.681 62.184 A 16.309 16.309 0 0 0 265.9 60 Z M 644.7 13.4 L 631.5 47 L 657.8 47 L 644.7 13.4 Z M 296 44.4 L 324.5 44.4 A 24.355 24.355 0 0 0 324.096 39.815 Q 323.6 37.231 322.496 35.207 A 12.422 12.422 0 0 0 320.7 32.7 A 12.488 12.488 0 0 0 313.739 28.924 A 18.395 18.395 0 0 0 310.2 28.6 A 13.58 13.58 0 0 0 305.088 29.535 A 12.524 12.524 0 0 0 300.6 32.65 Q 296.8 36.7 296 44.4 Z M 441.9 44.4 L 470.4 44.4 A 24.355 24.355 0 0 0 469.996 39.815 Q 469.5 37.231 468.396 35.207 A 12.422 12.422 0 0 0 466.6 32.7 A 12.488 12.488 0 0 0 459.639 28.924 A 18.395 18.395 0 0 0 456.1 28.6 A 13.58 13.58 0 0 0 450.988 29.535 A 12.524 12.524 0 0 0 446.5 32.65 Q 442.7 36.7 441.9 44.4 Z M 859.2 44.4 L 887.7 44.4 A 24.355 24.355 0 0 0 887.296 39.815 Q 886.8 37.231 885.696 35.207 A 12.422 12.422 0 0 0 883.9 32.7 A 12.488 12.488 0 0 0 876.939 28.924 A 18.395 18.395 0 0 0 873.4 28.6 A 13.58 13.58 0 0 0 868.288 29.535 A 12.524 12.524 0 0 0 863.8 32.65 Q 860 36.7 859.2 44.4 Z" vector-effect="non-scaling-stroke"/></g></svg>